<svg width="22" height="22" viewBox="0 0 22 22" fill="none" xmlns="http://www.w3.org/2000/svg">
<path d="M14.5237 3.06533L13.2147 3.78125L14.5237 4.49717L15.2396 5.80617L15.9555 4.49717L17.2645 3.78125L15.9555 3.06533L15.2396 1.75633L14.5237 3.06533ZM9.54434 3.8115C8.3438 4.0551 7.2234 4.59556 6.28546 5.38354C5.34751 6.17153 4.62191 7.18192 4.17491 8.32247C3.7279 9.46301 3.57374 10.6974 3.72649 11.9128C3.87925 13.1283 4.33405 14.2861 5.04938 15.2806C5.7647 16.275 6.71775 17.0745 7.82151 17.6058C8.92527 18.1372 10.1446 18.3837 11.368 18.3226C12.5915 18.2616 13.7802 17.895 14.8256 17.2564C15.871 16.6177 16.7397 15.7274 17.3525 14.6667C15.1756 14.6497 13.0936 13.7731 11.5603 12.2277C10.027 10.6824 9.16661 8.59363 9.16668 6.41667C9.16668 5.51833 9.28676 4.64108 9.54434 3.8115ZM1.83334 11C1.83334 5.93725 5.93726 1.83333 11 1.83333H12.5895L11.7938 3.20833C11.2631 4.125 11 5.21583 11 6.41667C10.9999 7.36415 11.2096 8.2999 11.614 9.15672C12.0185 10.0135 12.6077 10.7702 13.3393 11.3722C14.0709 11.9743 14.9267 12.4069 15.8453 12.6389C16.764 12.8709 17.7226 12.8966 18.6523 12.7142L20.1942 12.4144L19.6964 13.9049C18.4818 17.5422 15.0489 20.1667 11 20.1667C5.93726 20.1667 1.83334 16.0627 1.83334 11ZM18.7917 5.88133L19.6295 7.41217L21.1603 8.25L19.6295 9.08783L18.7917 10.6187L17.9538 9.08783L16.423 8.25L17.9538 7.41217L18.7917 5.88133Z" fill="#242424"/>
</svg>
