<svg width="22" height="22" viewBox="0 0 22 22" fill="none" xmlns="http://www.w3.org/2000/svg">
<g clip-path="url(#clip0_5_729)">
<path d="M11 19.25C15.5563 19.25 19.25 15.5563 19.25 11C19.25 6.44365 15.5563 2.75 11 2.75C6.44365 2.75 2.75 6.44365 2.75 11C2.75 15.5563 6.44365 19.25 11 19.25Z" stroke="#242424" stroke-width="1.5" stroke-linecap="round" stroke-linejoin="round"/>
<path d="M11 15.5833V15.5933" stroke="#242424" stroke-width="1.5" stroke-linecap="round" stroke-linejoin="round"/>
<path d="M11 12.375C10.9831 12.0774 11.0634 11.7824 11.2287 11.5344C11.394 11.2864 11.6355 11.0989 11.9167 11C12.2612 10.8682 12.5705 10.6583 12.8201 10.3867C13.0697 10.1151 13.2529 9.78928 13.3552 9.43487C13.4575 9.08045 13.4761 8.70713 13.4097 8.34429C13.3432 7.98144 13.1934 7.63899 12.972 7.34388C12.7507 7.04878 12.4639 6.80907 12.1342 6.64364C11.8045 6.47822 11.4409 6.39158 11.072 6.39056C10.7031 6.38953 10.339 6.47415 10.0084 6.63775C9.67776 6.80134 9.38962 7.03945 9.16666 7.33333" stroke="#242424" stroke-width="1.5" stroke-linecap="round" stroke-linejoin="round"/>
</g>
<defs>
<clipPath id="clip0_5_729">
<rect width="22" height="22" fill="white"/>
</clipPath>
</defs>
</svg>
