<svg width="22" height="22" viewBox="0 0 22 22" fill="none" xmlns="http://www.w3.org/2000/svg">
<g clip-path="url(#clip0_5_721)">
<path d="M11 12.8333C12.5188 12.8333 13.75 11.6021 13.75 10.0833C13.75 8.56455 12.5188 7.33334 11 7.33334C9.48122 7.33334 8.25 8.56455 8.25 10.0833C8.25 11.6021 9.48122 12.8333 11 12.8333Z" stroke="#242424" stroke-width="1.5" stroke-linecap="round" stroke-linejoin="round"/>
<path d="M16.1856 15.2689L12.2962 19.1583C11.9524 19.5017 11.4864 19.6947 11.0005 19.6947C10.5145 19.6947 10.0485 19.5017 9.70474 19.1583L5.81441 15.2689C4.78886 14.2433 4.09047 12.9366 3.80754 11.5141C3.52461 10.0916 3.66986 8.61714 4.22491 7.27717C4.77997 5.9372 5.7199 4.79191 6.92585 3.98613C8.1318 3.18035 9.54961 2.75027 11 2.75027C12.4504 2.75027 13.8682 3.18035 15.0741 3.98613C16.2801 4.79191 17.22 5.9372 17.7751 7.27717C18.3301 8.61714 18.4754 10.0916 18.1924 11.5141C17.9095 12.9366 17.2111 14.2433 16.1856 15.2689V15.2689Z" stroke="#242424" stroke-width="1.5" stroke-linecap="round" stroke-linejoin="round"/>
</g>
<defs>
<clipPath id="clip0_5_721">
<rect width="22" height="22" fill="white"/>
</clipPath>
</defs>
</svg>
