<svg width="32" height="27" viewBox="0 0 32 27" fill="none" xmlns="http://www.w3.org/2000/svg">
<path d="M20.5 18.1875L25.5685 12.9078C25.864 12.6001 26.2148 12.356 26.6008 12.1895C26.9869 12.023 27.4007 11.9374 27.8185 11.9375H28C28.7956 11.9375 29.5587 12.2667 30.1213 12.8528C30.6839 13.4388 31 14.2337 31 15.0625C31 15.8913 30.6839 16.6862 30.1213 17.2722C29.5587 17.8583 28.7956 18.1875 28 18.1875H4C3.20435 18.1875 2.44129 17.8583 1.87868 17.2722C1.31607 16.6862 1 15.8913 1 15.0625C1 14.2337 1.31607 13.4388 1.87868 12.8528C2.44129 12.2667 3.20435 11.9375 4 11.9375H10.7725C13.159 11.9376 15.4478 12.9251 17.1355 14.6828L20.5 18.1875ZM2.5 18.1875H29.5V21.3125C29.5 22.5557 29.0259 23.748 28.182 24.6271C27.3381 25.5061 26.1935 26 25 26H7C5.80653 26 4.66193 25.5061 3.81802 24.6271C2.97411 23.748 2.5 22.5557 2.5 21.3125V18.1875Z" stroke="#242424" stroke-width="2" stroke-linecap="round" stroke-linejoin="round"/>
<path d="M16.0014 7.25H15.9999M15.9999 1C9.06542 1 3.35192 3.74375 2.58692 10.375C2.48792 11.2344 3.17192 11.9375 3.99992 11.9375H27.9999C28.8279 11.9375 29.5119 11.2344 29.4129 10.375C28.6479 3.74375 22.9344 1 15.9999 1ZM8.50142 7.25H8.49992H8.50142ZM20.5014 5.6875H20.4999H20.5014Z" stroke="#242424" stroke-width="2" stroke-linecap="round" stroke-linejoin="round"/>
</svg>
