<svg width="39" height="26" viewBox="0 0 39 26" fill="none" xmlns="http://www.w3.org/2000/svg">
<path d="M35.8689 25.0714H3.13114C2.30092 25.07 1.50515 24.7394 0.918226 24.1522C0.331302 23.565 0.00110467 22.7691 0 21.9389V3.13393C0.000736223 2.30347 0.330771 1.50719 0.917735 0.919704C1.5047 0.332218 2.30068 0.00147474 3.13114 0H35.8689C36.6991 0.0014739 37.4948 0.332026 38.0818 0.919211C38.6687 1.5064 38.9989 2.30231 39 3.13253V21.9375C39.0009 22.3491 38.9206 22.7568 38.7636 23.1372C38.6066 23.5177 38.376 23.8634 38.0851 24.1546C37.7942 24.4457 37.4487 24.6766 37.0684 24.8339C36.6881 24.9913 36.2804 25.072 35.8689 25.0714Z" fill="#00A6ED"/>
<path d="M29.7877 16.7143H5.0338C4.80684 16.7132 4.58954 16.6223 4.42931 16.4616C4.26909 16.3008 4.17895 16.0832 4.17859 15.8563V12.0009C4.17859 11.537 4.55745 11.1429 5.0338 11.1429H29.7877C30.2501 11.1429 30.6429 11.5231 30.6429 12.0009V15.8702C30.6423 15.9818 30.6198 16.0923 30.5764 16.1952C30.5331 16.298 30.4699 16.3914 30.3905 16.4698C30.311 16.5482 30.2169 16.6102 30.1134 16.6521C30.01 16.6941 29.8993 16.7152 29.7877 16.7143Z" fill="#F4F4F4"/>
<path d="M32.5274 22.2857H35.0262C35.1825 22.2867 35.3374 22.2566 35.482 22.1972C35.6265 22.1378 35.7579 22.0503 35.8684 21.9398C35.9789 21.8293 36.0664 21.698 36.1258 21.5534C36.1851 21.4088 36.2152 21.2539 36.2143 21.0976V18.5988C36.2152 18.4426 36.1851 18.2876 36.1258 18.1431C36.0664 17.9985 35.9789 17.8672 35.8684 17.7567C35.7579 17.6462 35.6265 17.5587 35.482 17.4993C35.3374 17.4399 35.1825 17.4098 35.0262 17.4107H32.5274C32.3711 17.4098 32.2162 17.4399 32.0717 17.4993C31.9271 17.5587 31.7958 17.6462 31.6852 17.7567C31.5747 17.8672 31.4873 17.9985 31.4279 18.1431C31.3685 18.2876 31.3384 18.4426 31.3393 18.5988V21.0976C31.3419 21.4119 31.4679 21.7127 31.6901 21.9349C31.9124 22.1572 32.2131 22.2832 32.5274 22.2857Z" fill="#FFF478"/>
<path d="M39 4.17857H0V8.35714H39V4.17857Z" fill="#321B41"/>
<path d="M5.57141 13.9286C5.57141 13.7439 5.64478 13.5667 5.77539 13.4361C5.906 13.3055 6.08314 13.2321 6.26784 13.2321H21.5893C21.774 13.2321 21.9511 13.3055 22.0817 13.4361C22.2123 13.5667 22.2857 13.7439 22.2857 13.9286C22.2857 14.1133 22.2123 14.2904 22.0817 14.421C21.9511 14.5516 21.774 14.625 21.5893 14.625H6.26784C6.08314 14.625 5.906 14.5516 5.77539 14.421C5.64478 14.2904 5.57141 14.1133 5.57141 13.9286Z" fill="#9B9B9B"/>
</svg>
