<svg width="30" height="30" viewBox="0 0 30 30" fill="none" xmlns="http://www.w3.org/2000/svg">
<path d="M22.5 1.875C23.3265 1.87585 24.1427 2.05883 24.8905 2.41094C25.6383 2.76305 26.2993 3.27562 26.8265 3.91221C27.3537 4.54879 27.7341 5.29373 27.9407 6.09403C28.1473 6.89434 28.175 7.73034 28.0218 8.54255C27.8686 9.35477 27.5383 10.1233 27.0544 10.7933C26.5705 11.4634 25.9448 12.0186 25.222 12.4194C24.4991 12.8202 23.6968 13.0568 22.8721 13.1123C22.0475 13.1678 21.2207 13.0409 20.4506 12.7406L14.0625 21.2513V26.25H16.875C17.1236 26.25 17.3621 26.3488 17.5379 26.5246C17.7137 26.7004 17.8125 26.9389 17.8125 27.1875C17.8125 27.4361 17.7137 27.6746 17.5379 27.8504C17.3621 28.0262 17.1236 28.125 16.875 28.125H9.375C9.12636 28.125 8.8879 28.0262 8.71209 27.8504C8.53627 27.6746 8.4375 27.4361 8.4375 27.1875C8.4375 26.9389 8.53627 26.7004 8.71209 26.5246C8.8879 26.3488 9.12636 26.25 9.375 26.25H12.1875V21.2513L2.25 8.01375C2.00658 7.6892 1.875 7.29445 1.875 6.88875V6.57563C1.875 6.32699 1.97377 6.08853 2.14959 5.91272C2.3254 5.7369 2.56386 5.63813 2.8125 5.63813H4.91625L2.99625 3.18188C2.84309 2.98595 2.77403 2.7372 2.80427 2.49036C2.83451 2.24351 2.96157 2.01879 3.1575 1.86563C3.35343 1.71247 3.60218 1.64341 3.84902 1.67365C4.09587 1.70389 4.32059 1.83095 4.47375 2.02688L7.29375 5.63813H17.1881C17.5744 4.53775 18.293 3.58458 19.2446 2.91043C20.1962 2.23628 21.3338 1.87446 22.5 1.875ZM19.245 5.63813H23.4375C23.6861 5.63813 23.9246 5.7369 24.1004 5.91272C24.2762 6.08853 24.375 6.32699 24.375 6.57563V6.88688C24.375 7.29257 24.2434 7.68732 24 8.01188L21.6431 11.1525C22.3203 11.3112 23.0283 11.2784 23.688 11.0577C24.3476 10.8371 24.9329 10.4374 25.3784 9.90327C25.8239 9.36912 26.112 8.72159 26.2107 8.03307C26.3093 7.34455 26.2145 6.64217 25.9368 6.00444C25.6592 5.36671 25.2096 4.81877 24.6384 4.42186C24.0673 4.02496 23.3969 3.79473 22.7024 3.75692C22.0079 3.71911 21.3165 3.8752 20.7056 4.20774C20.0947 4.54029 19.5884 5.03619 19.2431 5.64V5.63813H19.245ZM8.76 7.51313L12.5531 12.3694C12.6976 12.5659 12.7598 12.8111 12.7264 13.0528C12.6931 13.2944 12.5669 13.5136 12.3745 13.6637C12.1822 13.8138 11.939 13.883 11.6964 13.8566C11.4539 13.8303 11.2312 13.7104 11.0756 13.5225L6.38062 7.51313H4.21875L13.125 19.3763L22.0312 7.51313H8.76Z" fill="#242424"/>
</svg>
