<svg width="18" height="14" viewBox="0 0 18 14" fill="none" xmlns="http://www.w3.org/2000/svg">
<path fill-rule="evenodd" clip-rule="evenodd" d="M18 6.99985C18 7.53065 17.5734 7.96539 17.0526 7.96539H3.22128L7.50748 12.3583C7.88691 12.745 7.88691 13.3485 7.50748 13.734C7.34193 13.9039 7.10508 14 6.84408 14C6.60723 14 6.34741 13.9039 6.18186 13.7106L0.283682 7.67597C-0.0945607 7.28927 -0.0945607 6.68581 0.283682 6.32373L6.18186 0.289118C6.5601 -0.0963727 7.15222 -0.0963727 7.53164 0.289118C7.90989 0.675816 7.90989 1.27928 7.53164 1.66477L3.22128 6.03431H17.0526C17.5734 6.03431 18 6.46904 18 6.99985Z" fill="#202244"/>
</svg>
