<svg width="28" height="28" viewBox="0 0 28 28" fill="none" xmlns="http://www.w3.org/2000/svg">
<g clip-path="url(#clip0_0_218)">
<path d="M14 16.3333C15.933 16.3333 17.5 14.7663 17.5 12.8333C17.5 10.9003 15.933 9.33333 14 9.33333C12.067 9.33333 10.5 10.9003 10.5 12.8333C10.5 14.7663 12.067 16.3333 14 16.3333Z" stroke="#5B5B5B" stroke-width="1.5" stroke-linecap="round" stroke-linejoin="round"/>
<path d="M20.5999 19.4332L15.6497 24.3833C15.2122 24.8204 14.619 25.0659 14.0006 25.0659C13.3822 25.0659 12.789 24.8204 12.3515 24.3833L7.40019 19.4332C6.09495 18.1279 5.20608 16.4648 4.84599 14.6543C4.4859 12.8439 4.67076 10.9673 5.37719 9.26185C6.08363 7.55643 7.2799 6.09879 8.81475 5.07326C10.3496 4.04772 12.1541 3.50034 14 3.50034C15.846 3.50034 17.6504 4.04772 19.1853 5.07326C20.7201 6.09879 21.9164 7.55643 22.6229 9.26185C23.3293 10.9673 23.5141 12.8439 23.1541 14.6543C22.794 16.4648 21.9051 18.1279 20.5999 19.4332V19.4332Z" stroke="#5B5B5B" stroke-width="1.5" stroke-linecap="round" stroke-linejoin="round"/>
</g>
<defs>
<clipPath id="clip0_0_218">
<rect width="28" height="28" fill="white"/>
</clipPath>
</defs>
</svg>
