<svg width="25" height="30" viewBox="0 0 25 30" fill="none" xmlns="http://www.w3.org/2000/svg">
<path d="M5.91942 13.4444C6.31151 13.4444 6.68754 13.2868 6.96479 13.0064C7.24204 12.7259 7.3978 12.3455 7.3978 11.9489C7.3978 11.5522 7.24204 11.1719 6.96479 10.8914C6.68754 10.6109 6.31151 10.4534 5.91942 10.4534C5.52733 10.4534 5.1513 10.6109 4.87405 10.8914C4.5968 11.1719 4.44105 11.5522 4.44105 11.9489C4.44105 12.3455 4.5968 12.7259 4.87405 13.0064C5.1513 13.2868 5.52733 13.4444 5.91942 13.4444ZM13.3113 16.4324C13.3113 16.8291 13.1556 17.2095 12.8783 17.4899C12.6011 17.7704 12.225 17.9279 11.8329 17.9279C11.4408 17.9279 11.0648 17.7704 10.7876 17.4899C10.5103 17.2095 10.3546 16.8291 10.3546 16.4324C10.3546 16.0358 10.5103 15.6554 10.7876 15.3749C11.0648 15.0945 11.4408 14.9369 11.8329 14.9369C12.225 14.9369 12.6011 15.0945 12.8783 15.3749C13.1556 15.6554 13.3113 16.0358 13.3113 16.4324ZM5.91942 22.4115C6.31151 22.4115 6.68754 22.2539 6.96479 21.9735C7.24204 21.693 7.3978 21.3126 7.3978 20.916C7.3978 20.5193 7.24204 20.139 6.96479 19.8585C6.68754 19.578 6.31151 19.4205 5.91942 19.4205C5.52733 19.4205 5.1513 19.578 4.87405 19.8585C4.5968 20.139 4.44105 20.5193 4.44105 20.916C4.44105 21.3126 4.5968 21.693 4.87405 21.9735C5.1513 22.2539 5.52733 22.4115 5.91942 22.4115ZM0.00591432 3.9778C0.00591432 1.74051 1.82432 -0.215619 4.17494 0.0191764C11.8289 0.786223 18.92 4.42946 24.0473 10.229C25.6291 12.0132 25.1368 14.6617 23.3391 15.9793C20.7349 17.8889 18.1314 19.7996 15.5289 21.7116C15.5259 22.3651 15.5259 22.7899 15.5274 23.3432V24.2839C15.5276 24.6664 15.4449 25.0444 15.2851 25.3911C15.1253 25.7378 14.8923 26.0449 14.6026 26.2907C14.3128 26.5365 13.9732 26.7151 13.6079 26.8138C13.2425 26.9125 12.8602 26.929 12.4879 26.8621C12.1863 28.0974 11.11 29.1458 9.61389 29.1458C8.57902 29.1458 7.74818 28.6448 7.23518 27.9269L5.27633 29.3567C3.0765 30.9643 -0.00147784 29.3746 5.32356e-07 26.6273L0.00591432 3.9778ZM3.95614 2.25198C3.05581 2.16225 2.22052 2.91449 2.22052 3.98079V4.75846C5.93183 4.91539 9.56648 5.8771 12.8785 7.57846C16.1904 9.27983 19.1024 11.6812 21.4172 14.6199L22.0367 14.1652C22.8912 13.5371 23.0006 12.411 22.3945 11.7275C17.638 6.34585 11.0591 2.96463 3.95762 2.25198H3.95614ZM2.21609 26.6288C2.21609 27.5456 3.24208 28.0765 3.97536 27.5411L7.12134 25.2455C7.2871 25.1249 7.48256 25.0529 7.68619 25.0375C7.88981 25.0221 8.09369 25.0638 8.27533 25.1582C8.45698 25.2525 8.60935 25.3958 8.71563 25.5722C8.82191 25.7486 8.87798 25.9512 8.87766 26.1578C8.87766 26.5615 9.18664 26.9055 9.61241 26.9055C9.70989 26.9065 9.8066 26.8879 9.89689 26.8507C9.98718 26.8135 10.0693 26.7585 10.1383 26.6889C10.2074 26.6193 10.2621 26.5365 10.2992 26.4453C10.3363 26.3541 10.3551 26.2564 10.3546 26.1578V24.2809C10.3546 23.9834 10.4714 23.6981 10.6793 23.4878C10.8872 23.2774 11.1693 23.1592 11.4633 23.1592C11.7574 23.1592 12.0394 23.2774 12.2474 23.4878C12.4553 23.6981 12.5721 23.9834 12.5721 24.2809C12.5721 24.4917 12.7362 24.6563 12.9388 24.6563C13.0368 24.6563 13.1308 24.6169 13.2001 24.5467C13.2694 24.4766 13.3084 24.3815 13.3084 24.2824V23.3522C13.3069 22.6493 13.3054 22.1438 13.3157 21.1253C13.3171 20.9502 13.359 20.7778 13.4381 20.622C13.5172 20.4662 13.6312 20.3313 13.7711 20.228C15.1046 19.247 17.4611 17.5182 19.6195 15.9359C17.5117 13.2833 14.87 11.1147 11.8699 9.57433C8.86975 8.03394 5.57996 7.15699 2.21904 7.00173V26.6288H2.21609Z" fill="white"/>
</svg>
