<svg width="28" height="28" viewBox="0 0 23 28" fill="none" xmlns="http://www.w3.org/2000/svg">
<path d="M1.11289 1.42734L0.966324 2.29031L20.8742 5.68202L21.0164 4.81851L1.11289 1.42734ZM1.08281 4.59593L0.996402 5.46656L20.9016 7.43749L20.9891 6.56249L1.08281 4.59593ZM12.682 9.20937C12.5672 9.2039 12.4523 9.24765 12.3594 9.33515C12.1734 9.50468 12.168 9.79452 12.3375 9.97499L12.4797 10.1281L11.5117 9.71249C11.282 9.61406 11.0141 9.71796 10.9156 9.94765C10.8172 10.1828 10.9211 10.4508 11.1562 10.5492L11.5281 10.7133C9.86015 10.8172 8.23047 11.3695 6.96172 12.2992L6.86328 12.1351C6.73203 11.9219 6.45312 11.8508 6.23437 11.982C6.02109 12.1133 5.95 12.3922 6.08125 12.6055L6.25625 12.8953L6.23437 12.9172L5.78593 12.4469C5.61093 12.2664 5.32109 12.2555 5.14062 12.4305C4.96015 12.6055 4.94921 12.8953 5.12421 13.0758L5.62734 13.6008C5.10781 14.2789 4.73593 15.0664 4.57187 15.9469H23.5375C23.8109 15.9469 24.0297 15.7445 24.0297 15.493C24.0297 15.2414 23.8109 15.0391 23.5375 15.0391H23.1L23.2641 15.0062C23.5375 14.968 23.7016 14.7328 23.6469 14.4867C23.5922 14.2351 23.3734 14.0656 23.1 14.1094L22.4984 14.2078C22.3344 14.0273 22.1703 13.8687 22.0062 13.7266L22.1156 13.6117C22.2797 13.4367 22.3344 13.1523 22.1156 12.9664C21.9516 12.7859 21.6727 12.7805 21.4922 12.9555L21.2187 13.2125C20.5133 12.8516 19.7586 12.6766 19.1133 12.5945C19.3156 12.4523 19.3703 12.168 19.2227 11.9601C19.0805 11.7578 18.7961 11.7031 18.5883 11.8508L17.8609 12.3594L18.0469 12.0312C18.1672 11.8125 18.0906 11.5336 17.8719 11.4078C17.6531 11.2875 17.3742 11.3641 17.2539 11.5828L16.9258 12.157C16.2148 11.643 15.4164 11.2711 14.5797 11.0305L13.0047 9.35156C12.9172 9.25859 12.8023 9.21484 12.682 9.20937ZM9.83281 12.0586L10.675 12.3594C10.8555 12.425 10.943 12.6219 10.8828 12.7969C10.8172 12.9773 10.6203 13.0648 10.4453 13.0047L9.60312 12.6984C9.42265 12.6328 9.32968 12.4414 9.39531 12.2609C9.49922 12.0695 9.65781 12.0148 9.83281 12.0586ZM14.5141 13.2836C14.5961 13.4531 14.525 13.6609 14.3555 13.7375L13.5461 14.1258C13.3766 14.2078 13.1687 14.1312 13.0867 13.9617C13.0102 13.7922 13.0812 13.5898 13.2508 13.5078L14.0602 13.125C14.2297 13.0484 14.443 13.1469 14.5141 13.2836ZM19.9062 13.8633L20.5516 14.4812C20.6883 14.6125 20.6937 14.8312 20.5625 14.968C20.4312 15.0992 20.218 15.1047 20.0812 14.9734L19.4359 14.3555C19.2992 14.2242 19.2937 14.0055 19.425 13.8687C19.5727 13.7484 19.7805 13.743 19.9062 13.8633ZM8.18672 14.782C8.2414 14.9625 8.14297 15.1539 7.9625 15.2141L7.10937 15.4875C6.93437 15.5422 6.7375 15.4437 6.68281 15.2633C6.62265 15.0828 6.72109 14.8914 6.90156 14.8367L7.75468 14.5633C7.93515 14.5141 8.1375 14.6453 8.18672 14.782ZM16.1164 14.6016L16.9859 14.8203C17.1719 14.8641 17.2812 15.05 17.2375 15.2359C17.1883 15.4164 17.0023 15.5312 16.8219 15.482L15.9523 15.2633C15.7664 15.2195 15.657 15.0336 15.7062 14.8476C15.7883 14.6508 15.9414 14.5742 16.1164 14.6016ZM2.15086 17.0625C2.24273 19.3867 3.05867 21.2625 4.80757 22.6242C6.6664 24.068 9.63047 24.9375 13.9453 24.9375C18.2602 24.9375 21.2242 24.068 23.0836 22.6242C24.8336 21.2625 25.6484 19.3867 25.7414 17.0625H2.15086ZM10.4453 25.8125V26.6875H17.4453V25.8125H10.4453Z" fill="#242424"/>
</svg>
